<?xml version="1.0" standalone="no"?>
<!DOCTYPE svg PUBLIC "-//W3C//DTD SVG 20010904//EN"
 "http://www.w3.org/TR/2001/REC-SVG-20010904/DTD/svg10.dtd">
<svg version="1.0" xmlns="http://www.w3.org/2000/svg"
 width="18px" height="18px" viewBox="0 0 512.000000 512.000000"
 fill="gray"
 preserveAspectRatio="xMidYMid meet">

<g transform="translate(0.000000,512.000000) scale(0.100000,-0.100000)"
fill="#000000" stroke="none">
<path d="M1558 4955 c-42 -24 -48 -45 -48 -168 l0 -115 -272 -5 c-292 -5 -334
-11 -467 -64 -229 -91 -429 -295 -510 -519 -59 -163 -61 -189 -61 -940 l0
-684 -66 0 c-62 0 -68 -2 -100 -34 l-34 -34 0 -276 c0 -294 4 -321 49 -346 13
-6 201 -10 535 -10 l516 0 0 -194 c0 -222 3 -247 37 -281 l26 -25 421 -2 421
-3 2 -515 c2 -383 6 -521 15 -538 25 -49 47 -52 338 -52 294 0 315 3 338 55 9
19 12 163 12 540 l0 515 423 0 423 0 27 28 27 28 2 219 3 220 515 2 c383 2
521 6 538 15 47 24 52 52 52 278 l0 210 160 0 c178 0 208 8 229 57 8 21 11
210 9 711 l-3 684 -28 24 -28 24 -268 0 -268 0 -7 94 c-17 251 -126 466 -314
622 -80 66 -217 136 -327 166 l-80 23 -1042 3 -1043 3 0 100 c0 101 -12 152
-43 177 -24 20 -79 24 -109 7z m-50 -697 l2 -207 -33 -16 c-59 -28 -105 -74
-136 -137 -26 -51 -31 -73 -31 -134 0 -62 5 -81 33 -135 114 -221 424 -216
534 9 67 138 13 308 -123 388 l-44 26 0 209 0 209 702 0 701 0 -59 -62 c-103
-108 -164 -213 -211 -365 l-28 -88 -3 -747 -3 -748 -1205 0 -1205 0 3 718 3
717 27 80 c68 200 214 359 401 437 112 48 184 57 442 55 l230 -2 3 -207z
m2332 186 c275 -82 467 -327 473 -603 l2 -76 -650 0 -650 0 2 87 c7 292 238
554 536 608 71 12 220 4 287 -16z m-2165 -604 c8 -7 19 -27 25 -45 33 -99 -90
-172 -165 -98 -50 51 -20 154 48 165 27 5 74 -7 92 -22z m3025 -293 c-8 -8
-176 -136 -373 -286 -220 -167 -362 -269 -370 -265 -13 8 -716 541 -731 556
-6 4 327 8 739 8 629 0 747 -2 735 -13z m-1220 -442 c223 -170 420 -317 438
-328 22 -13 42 -17 63 -13 18 3 200 135 467 338 240 183 444 339 454 346 17
13 18 -7 18 -487 l0 -501 -955 0 -955 0 0 501 0 501 33 -24 c17 -13 214 -163
437 -333z m1040 -995 l0 -150 -2160 0 -2160 0 0 150 0 150 2160 0 2160 0 0
-150z m-1110 -500 l0 -150 -1055 0 -1055 0 0 143 c0 79 3 147 7 150 3 4 478 7
1055 7 l1048 0 0 -150z m-900 -805 l0 -455 -150 0 -150 0 0 455 0 455 150 0
150 0 0 -455z"/>
</g>
</svg>
