<svg class="svg-icon" style="width: 30px; height: 30px;vertical-align: middle;fill: currentColor;overflow: hidden;" viewBox="0 0 1024 1024" version="1.1" xmlns="http://www.w3.org/2000/svg"><path d="M937.02 658.9L709.3 374.34c0-0.02-0.02-0.04-0.02-0.06l-53.84-67.28a10.01 10.01 0 0 0-6.7-3.68l-90.7-10.08c0.4-5.6 0.6-11.24 0.6-16.86 0-133.92-108.94-242.88-242.86-242.88S72.9 142.46 72.9 276.38c0 120.74 87.94 222.24 206.18 240.1l-10.06 90.66c-0.08 0.68-0.08 1.34-0.02 2 0.04 0.42 0.14 0.82 0.22 1.22 0.06 0.24 0.08 0.46 0.14 0.7 0.14 0.44 0.32 0.84 0.5 1.26 0.08 0.18 0.14 0.38 0.22 0.54 0.3 0.56 0.66 1.1 1.04 1.6 0.02 0.02 0.02 0.02 0.02 0.04l281.6 351.9c12.66 15.84 31.36 24.08 50.22 24.08 14.08 0 28.26-4.6 40.08-14.06l283.96-227.2c27.64-22.14 32.14-62.66 10.02-90.32zM92.9 276.38c0-122.9 99.98-222.88 222.88-222.88 122.88 0 222.86 99.98 222.86 222.88 0 4.88-0.18 9.78-0.48 14.64l-94.64-10.52-126.64-14.06c-2.64-0.3-5.28 0.48-7.36 2.14-2.06 1.64-3.4 4.06-3.68 6.7l-14.04 126.54c-0.02 0.02-0.02 0.06-0.02 0.1l-10.5 94.66c-108.08-16.7-188.38-109.66-188.38-220.2z m821.6 457.22L630.56 960.8c-19.06 15.24-46.96 12.14-62.2-6.9l-279-348.66 10.66-96.24c0.02-0.02 0.02-0.04 0.02-0.08v-0.06l24.56-221.44 116.72 12.96 94.64 10.52c-4.94 31.66-16.74 62-34.54 88.74a72.86 72.86 0 0 0-35.94-9.46c-40.4 0-73.28 32.88-73.28 73.3 0 10.82 2.36 21.08 6.58 30.32 0.06 0.12 0.08 0.26 0.12 0.38 0.08 0.18 0.2 0.34 0.28 0.5 11.74 24.86 37.04 42.1 66.3 42.1 40.42 0 73.3-32.88 73.3-73.3 0-20.16-8.18-38.44-21.4-51.7a242.668 242.668 0 0 0 38.48-98.66l86.54 9.62L921.4 671.4c15.24 19.04 12.14 46.96-6.9 62.2zM505.34 428.14c8.36 9.42 13.44 21.8 13.44 35.34 0 29.4-23.9 53.3-53.3 53.3-17.74 0-33.5-8.74-43.18-22.12 32.2-15.74 60.58-38.46 83.04-66.52z m-91.52 48.4c-1.06-4.18-1.62-8.56-1.62-13.06 0-29.38 23.9-53.3 53.28-53.3 8.64 0 16.8 2.08 24.02 5.74a223 223 0 0 1-75.68 60.62z" fill="#23130D" /><path d="M580.34 681.94l-15.16-1.74v75.34c3.18-4.34 6.98-8.32 11.4-11.82 1.22-0.98 2.48-1.9 3.76-2.76 4.8-3.26 10.02-5.82 15.5-7.6v-49.64l-15.5-1.78z m61.34 7.04l-15.16-1.74-15.52-1.78-15.16-1.74v49.64c4.9-1.62 10-2.62 15.16-2.96 1.4-0.12 2.78-0.16 4.18-0.16 3.84 0 7.64 0.34 11.34 1.02 5.28 0.98 10.36 2.6 15.16 4.88 5.64 2.64 10.86 6.14 15.5 10.42v-55.8l-15.5-1.78z m15.5-66.42c-4.96 1.28-10.14 1.98-15.5 1.98h-0.1c-5.2 0-10.24-0.64-15.06-1.84-5.5-1.38-10.72-3.48-15.52-6.22a62.074 62.074 0 0 1-15.16-12.08v59.18l15.16 1.74 15.52 1.78 15.16 1.74 15.5 1.78 15.16 1.74v-56c-4.7 2.7-9.8 4.8-15.16 6.2z m-76.84 59.38l-15.16-1.74v75.34c3.18-4.34 6.98-8.32 11.4-11.82 1.22-0.98 2.48-1.9 3.76-2.76 4.8-3.26 10.02-5.82 15.5-7.6v-49.64l-15.5-1.78z m61.34 7.04l-15.16-1.74-15.52-1.78-15.16-1.74v49.64c4.9-1.62 10-2.62 15.16-2.96 1.4-0.12 2.78-0.16 4.18-0.16 3.84 0 7.64 0.34 11.34 1.02 5.28 0.98 10.36 2.6 15.16 4.88 5.64 2.64 10.86 6.14 15.5 10.42v-55.8l-15.5-1.78z m15.5-66.42c-4.96 1.28-10.14 1.98-15.5 1.98h-0.1c-5.2 0-10.24-0.64-15.06-1.84-5.5-1.38-10.72-3.48-15.52-6.22a62.074 62.074 0 0 1-15.16-12.08v59.18l15.16 1.74 15.52 1.78 15.16 1.74 15.5 1.78 15.16 1.74v-56c-4.7 2.7-9.8 4.8-15.16 6.2z m-76.84 59.38l-15.16-1.74v75.34c3.18-4.34 6.98-8.32 11.4-11.82 1.22-0.98 2.48-1.9 3.76-2.76 4.8-3.26 10.02-5.82 15.5-7.6v-49.64l-15.5-1.78z m61.34 7.04l-15.16-1.74-15.52-1.78-15.16-1.74v49.64c4.9-1.62 10-2.62 15.16-2.96 1.4-0.12 2.78-0.16 4.18-0.16 3.84 0 7.64 0.34 11.34 1.02 5.28 0.98 10.36 2.6 15.16 4.88 5.64 2.64 10.86 6.14 15.5 10.42v-55.8l-15.5-1.78z m15.5-66.42c-4.96 1.28-10.14 1.98-15.5 1.98h-0.1c-5.2 0-10.24-0.64-15.06-1.84-5.5-1.38-10.72-3.48-15.52-6.22a62.074 62.074 0 0 1-15.16-12.08v59.18l15.16 1.74 15.52 1.78 15.16 1.74 15.5 1.78 15.16 1.74v-56c-4.7 2.7-9.8 4.8-15.16 6.2z m-76.84 59.38l-15.16-1.74v75.34c3.18-4.34 6.98-8.32 11.4-11.82 1.22-0.98 2.48-1.9 3.76-2.76 4.8-3.26 10.02-5.82 15.5-7.6v-49.64l-15.5-1.78z m61.34 7.04l-15.16-1.74-15.52-1.78-15.16-1.74v49.64c4.9-1.62 10-2.62 15.16-2.96 1.4-0.12 2.78-0.16 4.18-0.16 3.84 0 7.64 0.34 11.34 1.02 5.28 0.98 10.36 2.6 15.16 4.88 5.64 2.64 10.86 6.14 15.5 10.42v-55.8l-15.5-1.78z m15.5-66.42c-4.96 1.28-10.14 1.98-15.5 1.98h-0.1c-5.2 0-10.24-0.64-15.06-1.84-5.5-1.38-10.72-3.48-15.52-6.22a62.074 62.074 0 0 1-15.16-12.08v59.18l15.16 1.74 15.52 1.78 15.16 1.74 15.5 1.78 15.16 1.74v-56c-4.7 2.7-9.8 4.8-15.16 6.2z m-76.84 59.38l-15.16-1.74v75.34c3.18-4.34 6.98-8.32 11.4-11.82 1.22-0.98 2.48-1.9 3.76-2.76 4.8-3.26 10.02-5.82 15.5-7.6v-49.64l-15.5-1.78z m61.34 7.04l-15.16-1.74-15.52-1.78-15.16-1.74v49.64c4.9-1.62 10-2.62 15.16-2.96 1.4-0.12 2.78-0.16 4.18-0.16 3.84 0 7.64 0.34 11.34 1.02 5.28 0.98 10.36 2.6 15.16 4.88 5.64 2.64 10.86 6.14 15.5 10.42v-55.8l-15.5-1.78z m15.5-66.42c-4.96 1.28-10.14 1.98-15.5 1.98h-0.1c-5.2 0-10.24-0.64-15.06-1.84-5.5-1.38-10.72-3.48-15.52-6.22a62.074 62.074 0 0 1-15.16-12.08v59.18l15.16 1.74 15.52 1.78 15.16 1.74 15.5 1.78 15.16 1.74v-56c-4.7 2.7-9.8 4.8-15.16 6.2z m30.66-18.74a62.148 62.148 0 0 1-15.5 12.54c-4.7 2.7-9.8 4.8-15.16 6.2-4.96 1.28-10.14 1.98-15.5 1.98h-0.1c-5.2 0-10.24-0.64-15.06-1.84-5.5-1.38-10.72-3.48-15.52-6.22a62.074 62.074 0 0 1-15.16-12.08v59.18l15.16 1.74 15.52 1.78 15.16 1.74 15.5 1.78 15.16 1.74 15.5 1.78 15.16 1.74V571.6c-1.82 12.28-7.24 23.4-15.16 32.22z m-46.16 85.16l-15.16-1.74-15.52-1.78-15.16-1.74-15.5-1.78-15.16-1.74v75.34c3.18-4.34 6.98-8.32 11.4-11.82 1.22-0.98 2.48-1.9 3.76-2.76 4.8-3.26 10.02-5.82 15.5-7.6 4.9-1.62 10-2.62 15.16-2.96 1.4-0.12 2.78-0.16 4.18-0.16 3.84 0 7.64 0.34 11.34 1.02 5.28 0.98 10.36 2.6 15.16 4.88 5.64 2.64 10.86 6.14 15.5 10.42 2.38 2.18 4.62 4.58 6.66 7.16 3.5 4.4 6.34 9.16 8.5 14.2v-75.42l-15.16-1.74-15.5-1.78z m279.72-17.58l-4.88-6.1-15.16-18.94-15.5-19.38-15.16-18.94-15.5-19.36-15.16-18.96-15.52-19.38-15.16-18.96-15.5-19.36-15.16-18.94-15.5-19.38-14.02-17.52-15.5-19.36-15.16-18.96-15.52-19.38-15.16-18.96-15.5-19.36-15.16-18.94-14.78-18.48-0.72-0.08-15.16-1.68-15.52-1.74-15.16-1.68-15.5-1.72-15.16-1.68-9.32-1.04c-1.48 9.68-3.54 19.26-6.18 28.66-3.86 13.78-8.94 27.22-15.16 40.12-4.56 9.46-9.74 18.64-15.52 27.44-0.54 0.82-1.08 1.64-1.62 2.44 0.56 0.56 1.1 1.12 1.62 1.7a73.16 73.16 0 0 1 15.52 25.4c2.76 7.7 4.26 15.98 4.26 24.6s-1.5 16.92-4.26 24.62c-3.4 9.54-8.74 18.16-15.52 25.4a74.1 74.1 0 0 1-14 11.7 73.304 73.304 0 0 1-30.68 11.06c-2.9 0.34-5.84 0.52-8.84 0.52a72.992 72.992 0 0 1-21.82-3.32c-5.48-1.7-10.66-4.04-15.5-6.92a73.346 73.346 0 0 1-15.16-11.96 73.022 73.022 0 0 1-13.82-19.9c-0.08-0.16-0.2-0.32-0.28-0.5-0.04-0.12-0.06-0.26-0.12-0.38-0.46-1-0.88-2.02-1.3-3.04-3.4-8.42-5.28-17.64-5.28-27.28s1.88-18.86 5.28-27.3a73.24 73.24 0 0 1 15.52-23.8c4.5-4.62 9.6-8.66 15.16-11.96 4.84-2.88 10.02-5.22 15.5-6.92a72.992 72.992 0 0 1 21.82-3.32c3 0 5.94 0.18 8.84 0.54 5.26 0.64 10.32 1.82 15.16 3.52 4.18 1.44 8.16 3.26 11.94 5.4 1.22-1.84 2.42-3.7 3.58-5.58 5.26-8.4 9.94-17.16 14-26.18 7.04-15.62 12.26-32.02 15.52-48.86 0.54-2.7 1.02-5.4 1.44-8.12l-1.44-0.16-15.52-1.72-14-1.56-15.52-1.72-15.16-1.7-15.5-1.72-15.16-1.68-2.34-0.26-13.16-1.46-15.16-1.68-15.52-1.72-15.16-1.7-15.5-1.72-15.16-1.68-15.5-1.72-11.56-1.28-3.6 32.46-15.52 139.94-5.44 49.04v0.06c0 0.04 0 0.06-0.02 0.08l-9.7 87.58-0.96 8.66 0.96 1.2 15.16 18.94 15.52 19.4 15.16 18.94 15.5 19.38 15.16 18.94 15.5 19.38 15.16 18.94 15.52 19.4 15.16 18.94 15.5 19.36 15.16 18.96 15.5 19.36 15.16 18.94 45.04 56.3 15.16 18.94 15.5 19.36 3.18 3.98a44.04 44.04 0 0 0 11.98 10.4c4.82 2.86 10.08 4.74 15.5 5.6 5 0.82 10.14 0.76 15.16-0.16 5.4-0.98 10.68-3 15.52-6.06 1.38-0.88 2.74-1.84 4.04-2.88l11.12-8.9 15.5-12.4 15.16-12.14 15.5-12.4 15.16-12.12 15.52-12.42 15.16-12.14 15.5-12.4 14.02-11.22 15.5-12.4 15.16-12.12 15.5-12.42 15.16-12.12 15.52-12.42 15.16-12.12 15.5-12.42 15.16-12.12 15.5-12.4 13.14-10.52c0.7-0.56 1.38-1.14 2.02-1.72 17.22-15.54 19.56-42.14 4.88-60.48z m-341.06-119.36c2.02-12.06 7.56-22.94 15.5-31.6 4.38-4.76 9.48-8.84 15.16-12.06 4.8-2.74 10.02-4.84 15.52-6.22 4.82-1.2 9.86-1.84 15.06-1.84h0.1c5.36 0 10.54 0.7 15.5 1.98 5.36 1.4 10.46 3.5 15.16 6.2 5.82 3.32 11.04 7.56 15.5 12.52a61.88 61.88 0 0 1 15.16 32.24c0.44 2.98 0.68 6.04 0.68 9.16s-0.24 6.18-0.68 9.18c-1.82 12.28-7.24 23.4-15.16 32.22a62.148 62.148 0 0 1-15.5 12.54c-4.7 2.7-9.8 4.8-15.16 6.2-4.96 1.28-10.14 1.98-15.5 1.98h-0.1c-5.2 0-10.24-0.64-15.06-1.84-5.5-1.38-10.72-3.48-15.52-6.22a62.074 62.074 0 0 1-15.16-12.08c-7.94-8.64-13.48-19.52-15.5-31.58-0.58-3.38-0.88-6.86-0.88-10.4s0.3-7 0.88-10.38z m96.58 247.38c-0.7 6.08-2.24 11.92-4.58 17.38a60.866 60.866 0 0 1-15.16 21.32c-1.08 1.02-2.18 1.96-3.34 2.88a61.09 61.09 0 0 1-12.16 7.5 60.52 60.52 0 0 1-15.16 4.9c-3.7 0.7-7.48 1.06-11.28 1.06a62.988 62.988 0 0 1-19.4-3.06 61.72 61.72 0 0 1-15.5-7.62c-5.14-3.48-9.8-7.78-13.78-12.8-0.48-0.6-0.94-1.2-1.38-1.82-16.4-22.24-15.76-52.2 0-73.62 3.18-4.34 6.98-8.32 11.4-11.82 1.22-0.98 2.48-1.9 3.76-2.76 4.8-3.26 10.02-5.82 15.5-7.6 4.9-1.62 10-2.62 15.16-2.96 1.4-0.12 2.78-0.16 4.18-0.16 3.84 0 7.64 0.34 11.34 1.02 5.28 0.98 10.36 2.6 15.16 4.88 5.64 2.64 10.86 6.14 15.5 10.42 2.38 2.18 4.62 4.58 6.66 7.16 3.5 4.4 6.34 9.16 8.5 14.2 4.22 9.82 5.84 20.6 4.58 31.5z m123.48-102.3a9.96 9.96 0 0 1-6.54 8.26c-1.06 0.4-2.2 0.6-3.38 0.6-0.38 0-0.76-0.02-1.14-0.06l-10.64-1.22-15.5-1.78-14.02-1.6-15.5-1.78-15.16-1.74-15.52-1.78-15.16-1.74-15.5-1.78-15.16-1.74-15.5-1.78-15.16-1.74-15.52-1.78-15.16-1.74-15.5-1.78-15.16-1.74-15.5-1.76-15.16-1.74-15.52-1.78-14-1.62-15.52-1.78-15.16-1.74-9.14-1.04a9.976 9.976 0 0 1-6.36-3.34c-1.8-2.04-2.78-4.8-2.44-7.74 0.24-2.1 1.12-3.98 2.44-5.44a9.938 9.938 0 0 1 8.64-3.36l6.86 0.78 15.16 1.74 15.52 1.78 14 1.62 15.52 1.78 15.16 1.74 15.5 1.76 15.16 1.74 15.5 1.78 15.16 1.74 15.52 1.78 15.16 1.74 15.5 1.78 15.16 1.74 15.5 1.78 15.16 1.74 15.52 1.78 15.16 1.74 15.5 1.78 14.02 1.6 15.5 1.78 12.9 1.48c0.78 0.08 1.54 0.26 2.26 0.54 4.28 1.52 7.08 5.84 6.54 10.54z m-143.22-74.56c-4.96 1.28-10.14 1.98-15.5 1.98h-0.1c-5.2 0-10.24-0.64-15.06-1.84-5.5-1.38-10.72-3.48-15.52-6.22a62.074 62.074 0 0 1-15.16-12.08v59.18l15.16 1.74 15.52 1.78 15.16 1.74 15.5 1.78 15.16 1.74v-56c-4.7 2.7-9.8 4.8-15.16 6.2z m-15.5 66.42l-15.16-1.74-15.52-1.78-15.16-1.74v49.64c4.9-1.62 10-2.62 15.16-2.96 1.4-0.12 2.78-0.16 4.18-0.16 3.84 0 7.64 0.34 11.34 1.02 5.28 0.98 10.36 2.6 15.16 4.88 5.64 2.64 10.86 6.14 15.5 10.42v-55.8l-15.5-1.78z m-61.34-7.04l-15.16-1.74v75.34c3.18-4.34 6.98-8.32 11.4-11.82 1.22-0.98 2.48-1.9 3.76-2.76 4.8-3.26 10.02-5.82 15.5-7.6v-49.64l-15.5-1.78z m76.84-59.38c-4.96 1.28-10.14 1.98-15.5 1.98h-0.1c-5.2 0-10.24-0.64-15.06-1.84-5.5-1.38-10.72-3.48-15.52-6.22a62.074 62.074 0 0 1-15.16-12.08v59.18l15.16 1.74 15.52 1.78 15.16 1.74 15.5 1.78 15.16 1.74v-56c-4.7 2.7-9.8 4.8-15.16 6.2z m-15.5 66.42l-15.16-1.74-15.52-1.78-15.16-1.74v49.64c4.9-1.62 10-2.62 15.16-2.96 1.4-0.12 2.78-0.16 4.18-0.16 3.84 0 7.64 0.34 11.34 1.02 5.28 0.98 10.36 2.6 15.16 4.88 5.64 2.64 10.86 6.14 15.5 10.42v-55.8l-15.5-1.78z m-61.34-7.04l-15.16-1.74v75.34c3.18-4.34 6.98-8.32 11.4-11.82 1.22-0.98 2.48-1.9 3.76-2.76 4.8-3.26 10.02-5.82 15.5-7.6v-49.64l-15.5-1.78z m76.84-59.38c-4.96 1.28-10.14 1.98-15.5 1.98h-0.1c-5.2 0-10.24-0.64-15.06-1.84-5.5-1.38-10.72-3.48-15.52-6.22a62.074 62.074 0 0 1-15.16-12.08v59.18l15.16 1.74 15.52 1.78 15.16 1.74 15.5 1.78 15.16 1.74v-56c-4.7 2.7-9.8 4.8-15.16 6.2z m-15.5 66.42l-15.16-1.74-15.52-1.78-15.16-1.74v49.64c4.9-1.62 10-2.62 15.16-2.96 1.4-0.12 2.78-0.16 4.18-0.16 3.84 0 7.64 0.34 11.34 1.02 5.28 0.98 10.36 2.6 15.16 4.88 5.64 2.64 10.86 6.14 15.5 10.42v-55.8l-15.5-1.78z m-61.34-7.04l-15.16-1.74v75.34c3.18-4.34 6.98-8.32 11.4-11.82 1.22-0.98 2.48-1.9 3.76-2.76 4.8-3.26 10.02-5.82 15.5-7.6v-49.64l-15.5-1.78z m76.84-59.38c-4.96 1.28-10.14 1.98-15.5 1.98h-0.1c-5.2 0-10.24-0.64-15.06-1.84-5.5-1.38-10.72-3.48-15.52-6.22a62.074 62.074 0 0 1-15.16-12.08v59.18l15.16 1.74 15.52 1.78 15.16 1.74 15.5 1.78 15.16 1.74v-56c-4.7 2.7-9.8 4.8-15.16 6.2z m-15.5 66.42l-15.16-1.74-15.52-1.78-15.16-1.74v49.64c4.9-1.62 10-2.62 15.16-2.96 1.4-0.12 2.78-0.16 4.18-0.16 3.84 0 7.64 0.34 11.34 1.02 5.28 0.98 10.36 2.6 15.16 4.88 5.64 2.64 10.86 6.14 15.5 10.42v-55.8l-15.5-1.78z m-61.34-7.04l-15.16-1.74v75.34c3.18-4.34 6.98-8.32 11.4-11.82 1.22-0.98 2.48-1.9 3.76-2.76 4.8-3.26 10.02-5.82 15.5-7.6v-49.64l-15.5-1.78z m76.84-59.38c-4.96 1.28-10.14 1.98-15.5 1.98h-0.1c-5.2 0-10.24-0.64-15.06-1.84-5.5-1.38-10.72-3.48-15.52-6.22a62.074 62.074 0 0 1-15.16-12.08v59.18l15.16 1.74 15.52 1.78 15.16 1.74 15.5 1.78 15.16 1.74v-56c-4.7 2.7-9.8 4.8-15.16 6.2z m-15.5 66.42l-15.16-1.74-15.52-1.78-15.16-1.74v49.64c4.9-1.62 10-2.62 15.16-2.96 1.4-0.12 2.78-0.16 4.18-0.16 3.84 0 7.64 0.34 11.34 1.02 5.28 0.98 10.36 2.6 15.16 4.88 5.64 2.64 10.86 6.14 15.5 10.42v-55.8l-15.5-1.78z m-61.34-7.04l-15.16-1.74v75.34c3.18-4.34 6.98-8.32 11.4-11.82 1.22-0.98 2.48-1.9 3.76-2.76 4.8-3.26 10.02-5.82 15.5-7.6v-49.64l-15.5-1.78z m76.84-59.38c-4.96 1.28-10.14 1.98-15.5 1.98h-0.1c-5.2 0-10.24-0.64-15.06-1.84-5.5-1.38-10.72-3.48-15.52-6.22a62.074 62.074 0 0 1-15.16-12.08v59.18l15.16 1.74 15.52 1.78 15.16 1.74 15.5 1.78 15.16 1.74v-56c-4.7 2.7-9.8 4.8-15.16 6.2z m-15.5 66.42l-15.16-1.74-15.52-1.78-15.16-1.74v49.64c4.9-1.62 10-2.62 15.16-2.96 1.4-0.12 2.78-0.16 4.18-0.16 3.84 0 7.64 0.34 11.34 1.02 5.28 0.98 10.36 2.6 15.16 4.88 5.64 2.64 10.86 6.14 15.5 10.42v-55.8l-15.5-1.78z m-61.34-7.04l-15.16-1.74v75.34c3.18-4.34 6.98-8.32 11.4-11.82 1.22-0.98 2.48-1.9 3.76-2.76 4.8-3.26 10.02-5.82 15.5-7.6v-49.64l-15.5-1.78z" fill="#F9C139" /><path d="M335.204 300.672l104.79 11.636 81.794 9.092a211.946 211.946 0 0 1-24.836 62.828 85.192 85.192 0 0 0-31.472-6.048c-47.024 0-85.28 38.266-85.28 85.3a84.412 84.412 0 0 0 7.364 34.642l0.134 0.404 0.236 0.53c0.214 0.482 0.428 0.886 0.62 1.224 14.146 29.482 44.282 48.502 76.926 48.502 47.034 0 85.3-38.266 85.3-85.3 0-19.406-6.466-37.842-18.378-52.848a256.648 256.648 0 0 0 33.316-84.342l70.418 7.828 275.896 344.782c5.368 6.706 7.798 15.124 6.846 23.702-0.952 8.58-5.17 16.262-11.876 21.628L623.066 951.428a31.89 31.89 0 0 1-20.114 7.05c-9.888 0-19.082-4.402-25.224-12.076l-275.896-344.78 10.064-90.866c0.042-0.28 0.076-0.564 0.098-0.85l23.21-209.234M641.58 636.54c40.858 0 74.1-33.25 74.1-74.12 0-40.858-33.242-74.1-74.1-74.1-40.87 0-74.12 33.242-74.12 74.1 0 40.87 33.25 74.12 74.12 74.12m148.9 81.44c11.188 0 20.578-8.384 21.84-19.472a21.836 21.836 0 0 0-4.622-16.222 21.818 21.818 0 0 0-14.73-8.166l-324.164-37.182c-0.822-0.092-1.658-0.14-2.484-0.14-11.166 0.002-20.562 8.372-21.864 19.52-1.354 12.02 7.318 22.94 19.358 24.346l324.16 37.18 0.058 0.006 0.058 0.006c0.79 0.082 1.596 0.124 2.39 0.124m-175.24 148.48a74.41 74.41 0 0 0 46.062-16.062c15.518-12.32 25.3-29.942 27.54-49.604 2.266-19.662-3.276-39.032-15.602-54.534-14.132-17.808-35.294-28.02-58.06-28.02a74.292 74.292 0 0 0-46.058 16.08c-15.484 12.286-25.256 29.894-27.518 49.584-2.262 19.69 3.264 39.058 15.562 54.544 14.152 17.802 35.318 28.012 58.074 28.012M324.6 287.42l-24.56 221.44v0.06c0 0.04 0 0.06-0.02 0.08l-10.66 96.24 279 348.66c8.726 10.9 21.604 16.578 34.592 16.578 9.7 0 19.46-3.162 27.608-9.678l283.94-227.2c19.04-15.24 22.14-43.16 6.9-62.2L642.4 322.74l-86.54-9.62c-5.38 35.24-18.54 69-38.48 98.66 13.22 13.26 21.4 31.54 21.4 51.7 0 40.42-32.88 73.3-73.3 73.3-29.26 0-54.56-17.24-66.3-42.1-0.08-0.16-0.2-0.32-0.28-0.5-0.04-0.12-0.06-0.26-0.12-0.38a72.776 72.776 0 0 1-6.58-30.32c0-40.42 32.88-73.3 73.28-73.3 13.06 0 25.32 3.46 35.94 9.46 17.8-26.74 29.6-57.08 34.54-88.74l-94.64-10.52-116.72-12.96z m316.98 337.12c-34.26 0-62.12-27.86-62.12-62.12 0-34.24 27.86-62.1 62.12-62.1 34.24 0 62.1 27.86 62.1 62.1 0 34.26-27.86 62.12-62.1 62.12z m148.9 81.44c-0.38 0-0.76-0.02-1.14-0.06l-324.16-37.18a10.02 10.02 0 0 1-8.8-11.08 10.02 10.02 0 0 1 11.08-8.8l324.14 37.18a9.98 9.98 0 0 1 8.8 11.08 9.99 9.99 0 0 1-9.92 8.86z m-175.24 148.48c-19.08 0-36.82-8.56-48.68-23.48-21.3-26.82-16.8-65.98 10.02-87.26a62.234 62.234 0 0 1 38.6-13.48c19.08 0 36.82 8.56 48.66 23.48 10.32 12.98 14.98 29.22 13.08 45.7-1.88 16.5-10.08 31.26-23.08 41.58a62.334 62.334 0 0 1-38.6 13.46z" opacity=".2" /><path d="M800.4 697.12a9.99 9.99 0 0 1-11.06 8.8l-324.16-37.18a10.02 10.02 0 0 1-8.8-11.08 10.02 10.02 0 0 1 11.08-8.8l324.14 37.18a9.98 9.98 0 0 1 8.8 11.08zM641.58 500.32c-34.26 0-62.12 27.86-62.12 62.1 0 34.26 27.86 62.12 62.12 62.12 34.24 0 62.1-27.86 62.1-62.12 0-34.24-27.86-62.1-62.1-62.1z m0 104.22c-23.24 0-42.12-18.88-42.12-42.12 0-23.22 18.88-42.1 42.12-42.1 23.22 0 42.1 18.88 42.1 42.1 0 23.24-18.88 42.12-42.1 42.12z" fill="#23130D" /><path d="M683.68 562.42c0 23.24-18.88 42.12-42.1 42.12-23.24 0-42.12-18.88-42.12-42.12 0-23.22 18.88-42.1 42.12-42.1 23.22 0 42.1 18.88 42.1 42.1z" fill="#E1E1E5" /><path d="M663.84 753.72c-11.84-14.92-29.58-23.48-48.66-23.48-13.96 0-27.66 4.78-38.6 13.48-26.82 21.28-31.32 60.44-10.02 87.26 11.86 14.92 29.6 23.48 48.68 23.48 13.96 0 27.66-4.78 38.6-13.46 13-10.32 21.2-25.08 23.08-41.58 1.9-16.48-2.76-32.72-13.08-45.7z m-6.78 43.42c-1.28 11.18-6.84 21.2-15.66 28.18a41.656 41.656 0 0 1-26.16 9.14c-12.94 0-24.98-5.8-33.02-15.92-14.44-18.18-11.38-44.72 6.8-59.16 7.52-5.98 16.56-9.14 26.16-9.14 12.94 0 24.98 5.8 33 15.92a41.8 41.8 0 0 1 8.88 30.98z" fill="#23130D" /><path d="M657.06 797.14c-1.28 11.18-6.84 21.2-15.66 28.18a41.656 41.656 0 0 1-26.16 9.14c-12.94 0-24.98-5.8-33.02-15.92-14.44-18.18-11.38-44.72 6.8-59.16 7.52-5.98 16.56-9.14 26.16-9.14 12.94 0 24.98 5.8 33 15.92a41.8 41.8 0 0 1 8.88 30.98z" fill="#E1E1E5" /><path d="M290.32 596.58v9.86l-0.96-1.2zM321 319.88v324.9l-15.52-19.4v-165.56zM351.66 290.42v392.68l-15.5-19.38V288.7zM382.32 293.82v427.6l-15.5-19.38V292.1zM413 297.24v115.14a73.24 73.24 0 0 0-15.52 23.8v-140.66l15.52 1.72zM399.18 494.68c3.48 7.4 8.18 14.12 13.82 19.9v245.18l-15.52-19.4v-249.6c0.42 1.02 0.84 2.04 1.3 3.04 0.06 0.12 0.08 0.26 0.12 0.38 0.08 0.18 0.2 0.34 0.28 0.5zM443.66 300.64v92.86c-5.48 1.7-10.66 4.04-15.5 6.92v-101.5l13.16 1.46 2.34 0.26zM428.16 526.54c4.84 2.88 10.02 5.22 15.5 6.92v264.6l-15.5-19.36V526.54zM474.32 304.04v86.68a73.198 73.198 0 0 0-15.5-0.24v-88.16l15.5 1.72zM474.32 536.26v113.38l-6.86-0.78c-3.4-0.38-6.58 0.98-8.64 3.36v-115.74c2.2 0.2 4.42 0.3 6.66 0.3 3 0 5.94-0.18 8.84-0.52zM465.18 668.74l9.14 1.04v166.6l-15.5-19.36V665.4c1.58 1.8 3.8 3.04 6.36 3.34zM505 307.46v86.6c-1.16 1.88-2.36 3.74-3.58 5.58a71.466 71.466 0 0 0-11.94-5.4v-88.5l15.52 1.72zM505 525.2v127.96l-15.52-1.78v-118.64c5.5-1.9 10.7-4.46 15.52-7.54zM489.48 671.52l15.52 1.78v201.42l-15.52-19.4z" fill="#FFFFFF" opacity=".3" /><path d="M534.52 310.74v8.28c-3.26 16.84-8.48 33.24-15.52 48.86v-58.86l15.52 1.72zM534.52 381.9v56.98a73.16 73.16 0 0 0-15.52-25.4v-4.14c5.78-8.8 10.96-17.98 15.52-27.44zM534.52 488.1v168.46l-15.52-1.78v-141.28c6.78-7.24 12.12-15.86 15.52-25.4zM519 674.92l15.52 1.78v234.92l-15.52-19.4zM565.18 314.16v345.9l-15.5-1.76V341.78c2.64-9.4 4.7-18.98 6.18-28.66l9.32 1.04zM565.18 755.54c-15.76 21.42-16.4 51.38 0 73.62v120.76l-15.5-19.36V678.44l15.5 1.76v75.34zM595.84 317.56v202.88c-7.94 8.66-13.48 19.54-15.5 31.6v-236.2l15.5 1.72zM595.84 604.4v59.18l-15.5-1.78v-88.98c2.02 12.06 7.56 22.94 15.5 31.58zM595.84 683.72v49.64c-5.48 1.78-10.7 4.34-15.5 7.6v-59.02l15.5 1.78zM580.34 843.78c4.8 3.26 10 5.82 15.5 7.62v118.5c-5.42-0.86-10.68-2.74-15.5-5.6v-120.52zM626.52 320.98v181.18c-5.5 1.38-10.72 3.48-15.52 6.22v-189.14l15.52 1.74zM626.52 622.7v44.4l-15.52-1.78v-48.84c4.8 2.74 10.02 4.84 15.52 6.22zM626.52 687.24v44.02c-3.7-0.68-7.5-1.02-11.34-1.02-1.4 0-2.78 0.04-4.18 0.16v-44.94l15.52 1.78zM615.24 854.46c3.8 0 7.58-0.36 11.28-1.06v110.28a43.612 43.612 0 0 1-15.52 6.06v-115.42c1.4 0.1 2.82 0.14 4.24 0.14zM657.18 341.22v161.08a61.88 61.88 0 0 0-15.5-1.98v-177.66l0.72 0.08 14.78 18.48zM657.18 622.56v48.06l-15.5-1.78v-44.3c5.36 0 10.54-0.7 15.5-1.98zM657.18 690.76v55.8a60.952 60.952 0 0 0-15.5-10.42v-47.16l15.5 1.78zM653.84 841c1.16-0.92 2.26-1.86 3.34-2.88v101.38l-15.5 12.4v-103.4c4.3-2 8.4-4.52 12.16-7.5zM687.84 379.52v141.5c-4.46-4.96-9.68-9.2-15.5-12.52v-148.34l15.5 19.36zM687.84 603.82v70.32l-15.5-1.78v-56c5.82-3.32 11.04-7.56 15.5-12.54zM687.84 694.28v220.68l-15.5 12.4V692.5zM718.52 417.86v259.8l-15.52-1.78V571.6c0.44-3 0.68-6.06 0.68-9.18s-0.24-6.18-0.68-9.16v-154.78l15.52 19.38zM703 696.02l15.52 1.78v192.62l-15.52 12.42zM749.18 456.18v225l-15.5-1.78V436.82zM733.68 699.54l15.5 1.78v164.56l-15.5 12.4z" fill="#FFFFFF" opacity=".3" /><path d="M778.7 493.08v191.48l-15.5-1.78V473.7zM763.2 702.92l15.5 1.78v137.56l-15.5 12.4zM809.36 531.38v286.34l-15.5 12.42v-124.76a9.96 9.96 0 0 0 6.54-8.26 9.966 9.966 0 0 0-6.54-10.54v-174.56l15.5 19.36zM840.04 569.72v223.46l-15.52 12.42V550.34zM870.7 608.04v160.6l-15.5 12.42v-192.38zM901.36 646.36v97.76l-15.5 12.4v-129.54zM916.52 731.88v-66.58l4.88 6.1c14.68 18.34 12.34 44.94-4.88 60.48z" fill="#FFFFFF" opacity=".3" /></svg>