<?xml version="1.0" standalone="no"?>
<!DOCTYPE svg PUBLIC "-//W3C//DTD SVG 20010904//EN"
 "http://www.w3.org/TR/2001/REC-SVG-20010904/DTD/svg10.dtd">
<svg version="1.0" xmlns="http://www.w3.org/2000/svg"
 width="866.000000pt" height="650.000000pt" viewBox="0 0 866.000000 650.000000"
 preserveAspectRatio="xMidYMid meet">

<g transform="translate(0.000000,650.000000) scale(0.100000,-0.100000)"
fill="#000000" stroke="none">
<path d="M5051 5478 c-6 -7 -33 -42 -60 -78 -66 -89 -134 -150 -167 -150 -16
0 -42 14 -65 35 -22 19 -49 35 -60 35 -14 0 -50 -28 -97 -75 -87 -87 -105 -91
-165 -40 -64 55 -88 50 -185 -39 -56 -52 -92 -77 -115 -81 -41 -8 -73 6 -82
36 -6 18 -41 39 -66 39 -6 0 -34 -22 -62 -49 -69 -65 -124 -101 -155 -101 -15
0 -42 16 -68 40 -64 59 -75 56 -192 -51 -94 -85 -156 -109 -187 -71 -8 9 -25
33 -37 52 -37 55 -72 53 -147 -10 -33 -28 -61 -55 -61 -60 0 -18 -82 -70 -110
-70 -30 0 -51 20 -70 68 -26 66 -78 54 -204 -46 -122 -97 -144 -99 -187 -22
-13 22 -33 43 -45 46 -36 9 -92 -25 -152 -93 -63 -70 -112 -106 -134 -98 -8 3
-25 19 -37 35 -40 55 -98 33 -201 -75 -48 -50 -88 -75 -117 -75 -10 0 -36 14
-57 30 -22 17 -45 30 -52 30 -21 0 -73 -50 -134 -129 -32 -42 -72 -89 -89
-106 -30 -28 -33 -28 -64 -16 -67 27 -80 25 -122 -18 -22 -22 -67 -90 -100
-150 -82 -147 -79 -144 -136 -136 -27 4 -56 2 -67 -4 -28 -15 -174 -236 -232
-351 -64 -127 -124 -302 -158 -460 -24 -112 -26 -146 -27 -330 0 -226 11 -305
65 -471 57 -172 175 -374 258 -439 l27 -22 -42 -121 c-76 -219 -78 -334 -7
-474 42 -84 116 -178 163 -210 67 -46 129 -20 146 60 8 35 31 67 50 67 10 0
33 -14 134 -82 50 -34 66 -17 82 85 14 87 31 111 76 104 19 -3 56 -20 82 -37
26 -16 55 -30 63 -30 28 0 50 39 69 117 45 186 8 282 -131 347 -58 26 -75 30
-157 29 l-93 0 26 41 c76 124 124 254 124 335 0 64 -39 141 -101 201 -52 50
-52 50 -23 50 95 0 168 -59 203 -161 28 -85 27 -162 -4 -256 -14 -42 -24 -77
-23 -78 2 -1 30 -7 62 -13 84 -17 141 -53 182 -118 19 -30 40 -54 47 -54 7 0
66 -7 132 -14 343 -41 799 -47 880 -12 25 10 86 63 166 144 147 149 216 196
290 196 32 0 55 -6 66 -16 14 -15 12 -18 -28 -38 -105 -54 -186 -133 -237
-232 -24 -47 -27 -64 -27 -153 0 -123 8 -141 115 -253 88 -94 138 -180 169
-291 23 -84 43 -119 74 -130 46 -18 77 25 91 122 4 27 16 57 27 68 24 24 43
16 111 -47 26 -24 53 -44 61 -44 29 0 49 39 57 112 6 56 13 76 30 90 26 21 44
14 107 -43 44 -40 82 -50 101 -26 6 7 14 33 17 57 13 99 17 110 35 120 26 14
59 -1 110 -46 36 -33 45 -36 68 -28 55 19 82 145 47 214 -32 62 -131 113 -307
155 -98 24 -148 51 -148 81 0 9 92 13 373 17 298 4 402 9 522 26 360 49 623
124 865 246 l105 53 85 -18 c331 -72 955 -117 1490 -107 335 6 415 19 660 105
58 20 110 71 110 108 0 50 -65 99 -179 134 -103 32 -130 51 -167 121 -18 36
-40 37 -104 2 -58 -33 -77 -27 -100 33 -8 21 -20 48 -26 58 -18 30 -64 24
-118 -14 -55 -40 -73 -35 -96 27 -31 84 -57 91 -140 38 -49 -31 -55 -33 -71
-19 -9 8 -22 35 -29 60 -20 70 -47 74 -128 19 -52 -36 -101 -33 -192 11 -41
19 -99 54 -128 76 -42 31 -56 37 -67 28 -12 -10 -11 -18 1 -53 40 -112 149
-165 727 -352 366 -118 418 -143 425 -196 4 -36 -31 -69 -74 -69 -56 0 -89 23
-103 72 -31 104 -66 113 -159 43 -74 -56 -85 -52 -134 44 -20 40 -40 67 -51
69 -10 2 -45 -13 -78 -33 -82 -50 -96 -46 -142 43 -34 64 -41 72 -67 72 -17 0
-46 -14 -73 -34 -73 -56 -81 -58 -104 -33 -11 12 -28 41 -38 64 -34 81 -45 83
-176 47 -55 -15 -73 -16 -105 -6 -58 17 -168 108 -270 224 -77 88 -101 109
-167 142 -100 51 -192 58 -341 27 -121 -26 -161 -26 -205 -3 -42 21 -69 56
-77 100 l-7 33 39 -8 c88 -18 204 -9 318 26 100 31 116 33 205 28 67 -3 127
-14 198 -36 119 -36 182 -39 329 -14 l100 17 78 -52 c43 -29 86 -52 95 -52 27
0 47 29 65 92 17 58 43 88 79 88 10 0 47 -16 82 -35 37 -21 69 -33 79 -29 10
4 23 31 33 66 18 63 53 108 85 108 11 0 46 -16 78 -36 32 -20 67 -34 77 -32
12 2 25 24 40 66 39 116 66 128 161 76 40 -22 75 -35 85 -31 9 3 23 31 32 62
20 69 52 108 88 108 14 0 48 -15 75 -32 53 -34 93 -39 112 -16 7 9 21 44 30
78 13 47 23 65 44 77 34 19 84 92 92 135 17 93 -9 115 -136 115 -135 0 -303
-33 -930 -185 l-265 -64 -15 22 c-8 12 -35 43 -61 70 -45 46 -48 47 -105 47
-32 0 -84 -7 -114 -15 -77 -21 -158 -19 -253 6 -109 28 -246 23 -327 -11 -63
-27 -199 -111 -224 -138 -15 -17 -29 -19 -134 -15 -130 6 -217 -9 -300 -50
l-47 -24 -150 63 c-226 95 -440 152 -715 191 -181 25 -652 25 -840 0 -288 -39
-715 -126 -990 -202 -213 -58 -328 -66 -456 -29 -106 29 -145 124 -88 210 89
135 431 322 839 459 161 55 232 75 560 160 382 99 673 197 949 320 274 121
442 212 561 304 199 153 337 368 339 526 1 69 0 70 -26 73 -14 2 -31 -3 -37
-10z m-2867 -967 c7 -10 -33 -171 -45 -185 -7 -8 -199 103 -199 115 0 13 109
59 160 68 76 12 78 12 84 2z m-314 -155 c0 -2 -9 -23 -19 -47 -11 -24 -22 -65
-26 -91 -4 -27 -11 -48 -15 -48 -4 0 -49 25 -100 56 -91 57 -91 57 -72 77 28
28 118 56 180 57 28 0 52 -2 52 -4z m-310 -213 c0 -14 -5 -55 -11 -90 -8 -48
-15 -63 -28 -63 -30 1 -186 85 -189 102 -5 29 108 75 191 77 34 1 37 -1 37
-26z m200 -228 c0 -59 -20 -135 -36 -135 -20 0 -194 88 -194 98 0 7 188 69
218 71 7 1 12 -12 12 -34z m-410 -13 c0 -5 -6 -28 -14 -53 -7 -24 -19 -63 -25
-86 -7 -24 -16 -43 -22 -43 -11 0 -194 109 -194 116 0 8 82 48 125 60 52 15
130 18 130 6z m263 -284 c-15 -61 -33 -118 -37 -118 -1 0 -36 17 -77 38 -41
21 -84 41 -96 44 -37 10 -27 24 35 51 69 31 84 34 143 36 l46 1 -14 -52z
m-353 -19 c0 -25 -41 -149 -51 -155 -11 -7 -198 76 -199 88 0 3 24 18 53 32
77 38 197 59 197 35z m5308 -41 c34 -33 29 -56 -15 -63 -21 -4 -60 -11 -86
-16 -61 -11 -57 -12 -57 7 0 25 40 85 64 94 28 12 66 3 94 -22z m-428 -39 c33
-20 79 -66 80 -81 0 -9 -170 -48 -211 -48 -44 0 -55 8 -64 48 -6 28 -2 37 28
67 30 30 41 35 84 35 31 0 60 -7 83 -21z m-2440 -53 c0 -8 -9 -33 -20 -57 -11
-24 -20 -54 -20 -67 0 -39 -28 -37 -121 9 -48 24 -88 47 -88 50 -2 11 85 53
134 65 70 17 115 17 115 0z m-370 -21 c0 -25 -32 -149 -42 -161 -6 -9 -34 2
-96 37 -48 27 -93 49 -99 49 -50 0 78 69 149 81 72 11 88 10 88 -6z m710 2 c0
-22 -38 -149 -47 -158 -6 -6 -28 1 -59 17 -27 15 -71 38 -98 52 l-50 25 58 29
c47 24 108 39 184 47 6 0 12 -5 12 -12z m344 -55 c7 -11 -30 -152 -43 -165 -8
-8 -39 3 -107 38 l-95 49 33 28 c18 15 51 34 73 42 44 16 131 21 139 8z
m-2734 -8 c0 -18 -43 -170 -50 -178 -5 -5 -30 7 -58 28 -28 20 -71 45 -96 57
-25 11 -46 22 -46 24 0 8 75 49 113 61 43 13 137 19 137 8z m1292 1 c3 -3 -5
-41 -17 -85 -12 -44 -20 -82 -17 -85 3 -3 0 -5 -7 -5 -10 0 -198 95 -209 105
-6 5 78 47 123 61 41 13 117 18 127 9z m-1647 -85 c7 -12 -23 -158 -35 -165
-4 -3 -47 15 -96 40 -48 25 -94 45 -101 45 -53 0 74 66 152 79 71 12 73 12 80
1z m1301 -3 c2 -7 -4 -33 -15 -58 -12 -24 -21 -56 -21 -71 0 -41 -17 -43 -83
-7 -34 18 -77 39 -94 48 -18 8 -33 18 -33 21 0 14 117 63 165 70 74 11 75 11
81 -3z m2120 -34 c-4 -9 -9 -42 -13 -74 -9 -91 -10 -91 -118 -34 -52 28 -95
53 -95 56 0 7 82 48 118 59 15 5 47 9 71 9 36 1 42 -2 37 -16z m-2486 -72 c0
-29 -34 -152 -44 -160 -9 -8 -40 3 -109 37 -52 26 -96 50 -96 53 -2 11 77 49
130 63 62 17 119 20 119 7z m-366 -19 c5 -9 -17 -88 -39 -139 -17 -38 -15 -38
-134 25 l-84 45 58 29 c75 38 186 61 199 40z m1741 -44 c-13 -65 -35 -137 -45
-143 -5 -3 -52 17 -104 44 l-95 49 40 27 c57 37 105 53 162 54 l49 1 -7 -32z
m359 -38 c-19 -79 -31 -110 -44 -110 -15 0 -190 93 -190 101 0 7 104 54 135
62 11 3 41 5 66 6 l46 1 -13 -60z m-729 8 c-14 -72 -36 -138 -46 -138 -14 0
-189 92 -189 100 0 8 85 47 130 59 19 5 52 10 73 10 38 1 39 1 32 -31z m1089
-16 c4 -7 -13 -73 -36 -134 -6 -16 -17 -28 -24 -28 -7 0 -54 21 -103 47 l-90
47 32 19 c66 41 206 72 221 49z m-1444 -19 c1 -21 -45 -179 -53 -184 -5 -4
-47 18 -95 47 -47 30 -89 54 -94 54 -40 0 49 56 121 75 52 15 121 19 121 8z
m-1413 -41 c9 -6 7 -25 -9 -77 -11 -39 -25 -75 -30 -82 -7 -9 -33 0 -103 35
-52 26 -94 50 -95 54 0 13 111 60 162 68 29 4 55 8 58 9 3 0 10 -3 17 -7z
m1040 -75 c-2 -7 -10 -38 -16 -68 -7 -31 -18 -65 -26 -75 -13 -18 -18 -17
-109 30 -53 27 -96 51 -96 52 0 8 103 55 137 63 60 14 116 13 110 -2z m-369
-95 c10 -7 8 -23 -8 -76 -12 -37 -28 -70 -35 -73 -8 -3 -34 5 -57 18 -24 12
-68 35 -98 50 l-54 28 29 11 c135 50 193 61 223 42z m-343 -24 c-3 -13 -14
-49 -22 -81 -9 -32 -22 -61 -29 -64 -10 -3 -176 76 -193 93 -10 10 171 73 213
73 35 1 38 -1 31 -21z m1732 -59 c-11 -44 -26 -83 -33 -86 -7 -3 -26 2 -41 10
-61 31 -148 79 -151 82 -2 1 14 13 34 26 46 28 114 47 170 48 l42 1 -21 -81z
m363 54 c0 -10 -17 -78 -32 -125 -6 -21 -17 -38 -25 -38 -11 0 -180 84 -192
95 -4 5 61 33 129 56 57 18 120 25 120 12z m-714 -30 c-8 -28 -36 -144 -36
-149 0 -15 -54 1 -103 31 -32 19 -69 38 -82 41 -35 9 -31 17 17 44 47 26 124
48 176 49 27 1 32 -2 28 -16z m-362 -70 c-4 -10 -17 -46 -29 -81 -13 -35 -25
-65 -28 -68 -2 -3 -48 17 -101 45 l-96 49 36 22 c50 32 110 49 173 49 47 1 52
-1 45 -16z m-374 -98 c0 -32 -33 -145 -45 -155 -9 -7 -27 -1 -66 20 -30 17
-71 38 -91 47 -21 9 -38 19 -38 23 0 14 83 52 142 65 84 18 98 18 98 0z"/>
</g>
</svg>
