<svg class="svg-icon" style="vertical-align: middle;fill: currentColor;overflow: hidden;" width="72px" height="72px" viewBox="0 0 1024 1024" version="1.1" xmlns="http://www.w3.org/2000/svg"><path d="M107.946667 838.613333l57.386666 23.68V477.226667L61.866667 727.04c-17.92 43.306667 2.773333 93.44 46.08 111.573333z m832-158.293333L728.32 169.813333a85.461333 85.461333 0 0 0-77.013333-52.48c-11.306667-0.213333-22.826667 1.92-34.133334 6.4L302.933333 253.866667c-32 13.226667-51.626667 44.16-52.48 76.8-0.213333 11.52 1.706667 23.04 6.4 34.346666l211.413334 510.506667c13.44 32.426667 44.8 52.053333 78.08 52.48 11.093333 0 22.186667-1.92 33.066666-6.4l314.24-130.133333c43.306667-17.92 64.213333-67.84 46.293334-111.146667zM336 373.333333c-23.466667 0-42.666667-19.2-42.666667-42.666666s19.2-42.666667 42.666667-42.666667 42.666667 19.2 42.666667 42.666667-19.2 42.666667-42.666667 42.666666z m-85.333333 469.333334c0 46.933333 38.4 85.333333 85.333333 85.333333h62.08l-147.413333-355.84V842.666667z"  /></svg>